<svg width="190" height="47" viewBox="0 0 190 47" fill="none" xmlns="http://www.w3.org/2000/svg">
<path d="M68.6067 20.72C67.7934 21.4533 67.3867 22.5133 67.3867 23.9C67.3867 25.2867 67.7934 26.3467 68.6067 27.08C69.4334 27.8133 70.3934 28.18 71.4867 28.18C72.5801 28.18 73.5334 27.8133 74.3467 27.08C75.1601 26.3467 75.5667 25.2867 75.5667 23.9C75.5667 22.5133 75.1601 21.4533 74.3467 20.72C73.5334 19.9733 72.5801 19.6 71.4867 19.6C70.3934 19.6 69.4334 19.9733 68.6067 20.72ZM64.1067 23.92C64.1067 21.72 64.8201 19.94 66.2467 18.58C67.6867 17.2067 69.4334 16.52 71.4867 16.52C73.5401 16.52 75.2801 17.2067 76.7067 18.58C78.1334 19.9533 78.8467 21.7333 78.8467 23.92C78.8467 26.1067 78.1334 27.8867 76.7067 29.26C75.2801 30.62 73.5401 31.3 71.4867 31.3C69.4334 31.3 67.6867 30.62 66.2467 29.26C64.8201 27.8867 64.1067 26.1067 64.1067 23.92ZM91.9186 31L89.3786 25.72H88.2586V31H85.0986V16.82H90.7186C92.0919 16.82 93.1986 17.24 94.0386 18.08C94.8919 18.92 95.3186 19.98 95.3186 21.26C95.3186 22.22 95.0719 23.0533 94.5786 23.76C94.0853 24.4533 93.3986 24.9533 92.5186 25.26L95.3986 31H91.9186ZM88.2586 23H90.1186C90.7586 23 91.2519 22.8467 91.5986 22.54C91.9453 22.22 92.1186 21.8 92.1186 21.28C92.1186 20.7467 91.9453 20.3267 91.5986 20.02C91.2519 19.7133 90.7586 19.56 90.1186 19.56H88.2586V23ZM104.817 28.02H106.657C107.817 28.02 108.764 27.6733 109.497 26.98C110.244 26.2867 110.617 25.2667 110.617 23.92C110.617 22.56 110.244 21.5333 109.497 20.84C108.764 20.1467 107.817 19.8 106.657 19.8H104.817V28.02ZM106.777 31H101.657V16.82H106.797C108.944 16.82 110.664 17.46 111.957 18.74C113.264 20.02 113.917 21.7467 113.917 23.92C113.917 26.0933 113.264 27.82 111.957 29.1C110.664 30.3667 108.937 31 106.777 31ZM129.909 20.3L127.069 21.1C127.003 20.66 126.783 20.2533 126.409 19.88C126.036 19.5067 125.469 19.32 124.709 19.32C124.136 19.32 123.669 19.4733 123.309 19.78C122.949 20.0733 122.769 20.4267 122.769 20.84C122.769 21.5733 123.236 22.0267 124.169 22.2L126.069 22.56C127.376 22.8 128.383 23.3133 129.089 24.1C129.809 24.8733 130.169 25.78 130.169 26.82C130.169 28.0067 129.696 29.0533 128.749 29.96C127.803 30.8533 126.529 31.3 124.929 31.3C123.143 31.3 121.756 30.84 120.769 29.92C119.796 28.9867 119.249 27.9333 119.129 26.76L122.029 26.06C122.096 26.7667 122.369 27.3533 122.849 27.82C123.343 28.2733 124.049 28.5 124.969 28.5C125.583 28.5 126.069 28.3667 126.429 28.1C126.789 27.82 126.969 27.46 126.969 27.02C126.969 26.66 126.836 26.36 126.569 26.12C126.303 25.8667 125.929 25.6933 125.449 25.6L123.509 25.24C122.309 25.0133 121.363 24.5267 120.669 23.78C119.989 23.0333 119.649 22.1333 119.649 21.08C119.649 19.7733 120.149 18.6867 121.149 17.82C122.149 16.9533 123.343 16.52 124.729 16.52C125.569 16.52 126.316 16.64 126.969 16.88C127.636 17.1067 128.163 17.4133 128.549 17.8C128.936 18.1867 129.236 18.5867 129.449 19C129.676 19.4133 129.829 19.8467 129.909 20.3ZM149.739 25.92L152.039 16.82H155.279L151.419 31H148.159L145.139 21.6L142.099 31H138.779L134.919 16.82H138.279L140.619 25.9L143.559 16.82H146.799L149.739 25.92ZM169.7 31L168.68 28.12H163.2L162.18 31H158.86L164.2 16.82H167.86L173.14 31H169.7ZM165.98 20.34L164.24 25.24H167.68L165.98 20.34ZM182.068 23.18H183.908C184.508 23.18 184.994 23.02 185.368 22.7C185.741 22.3667 185.928 21.9267 185.928 21.38C185.928 20.82 185.741 20.38 185.368 20.06C185.008 19.7267 184.521 19.56 183.908 19.56H182.068V23.18ZM184.228 25.9H182.048V31H178.888V16.82H184.228C185.668 16.82 186.834 17.2467 187.728 18.1C188.634 18.9533 189.088 20.04 189.088 21.36C189.088 22.7067 188.634 23.8 187.728 24.64C186.834 25.48 185.668 25.9 184.228 25.9Z" fill="white"/>
<circle cx="23.5" cy="23.5" r="23.5" fill="#E533CD"/>
<g clip-path="url(#clip0_136_4418)">
<path d="M11.3579 19.3149C11.3705 19.2353 11.3994 19.1666 11.4836 19.1377C11.4987 19.2371 11.4608 19.2992 11.3579 19.3149Z" fill="#E4F8C7"/>
<path d="M20.0961 29.372C20.137 28.8434 20.1557 28.3559 20.1599 27.8671C20.1653 27.2277 20.1635 26.5882 20.125 25.95C20.0636 24.9278 19.959 23.9105 19.8068 22.8968C19.6179 21.6378 19.3014 20.4065 19.0337 19.1644C18.9044 18.5629 18.8232 17.9542 18.8677 17.3395C18.9549 16.1281 19.4608 15.1216 20.3999 14.3471C21.1898 13.695 22.1103 13.3865 23.1276 13.413C23.6287 13.4262 24.1316 13.3666 24.6334 13.46C25.4371 13.6101 26.153 13.9313 26.7582 14.4845C27.5006 15.1626 27.9457 16.0033 28.0931 16.9971C28.1743 17.5414 28.1407 18.0862 28.057 18.6286C27.8994 19.6525 27.5974 20.6452 27.4073 21.6619C27.2635 22.4303 27.1336 23.2005 27.0446 23.9786C26.9519 24.7874 26.8917 25.5968 26.8569 26.4104C26.8292 27.0553 26.8268 27.6996 26.8466 28.3432C26.8569 28.6711 26.8376 29.0032 26.9092 29.3467C27.139 29.2045 27.3195 29.0188 27.4837 28.8187C28.0288 28.1558 28.2905 27.3669 28.4715 26.5448C28.6562 25.7053 28.7212 24.8453 28.9041 24.0051C29.0767 23.2126 29.324 22.452 29.8492 21.8132C30.4466 21.0869 31.2136 20.6403 32.1383 20.4963C33.1953 20.3318 34.1542 20.5933 35.0163 21.228C35.4693 21.5612 35.6642 22.0283 35.7286 22.5641C35.8026 23.1825 35.87 23.8032 35.8501 24.427C35.8206 25.3437 35.6648 26.229 35.1643 27.0227C34.9405 27.3777 34.665 27.6905 34.3774 27.9931C33.9695 28.4222 33.5478 28.8398 33.2326 29.3473C32.8903 29.8987 32.7254 30.5159 32.5828 31.1403C32.4667 31.6471 32.3639 32.1564 32.2261 32.6578C31.9506 33.6571 31.3634 34.4225 30.5127 34.9998C29.9888 35.356 29.4431 35.6773 28.9029 36.0075C28.06 36.5228 27.4139 37.2153 26.9381 38.0783C26.7389 38.4393 26.5097 38.7829 26.2336 39.0914C25.765 39.6158 25.1513 39.8599 24.4824 39.9943C24.1701 40.0569 23.8549 40.1142 23.5373 40.1269C23.2503 40.1389 22.9663 40.075 22.6836 40.0256C22.0796 39.9195 21.5015 39.7466 21.0202 39.341C20.652 39.0306 20.3921 38.634 20.1455 38.2284C19.808 37.6733 19.4813 37.1104 18.9862 36.6741C18.532 36.2745 18.02 35.9575 17.5051 35.6453C16.9203 35.2903 16.3307 34.9426 15.8284 34.4671C15.2792 33.9476 14.9417 33.3081 14.7546 32.5867C14.5777 31.9045 14.4297 31.2144 14.257 30.531C14.0688 29.786 13.6946 29.143 13.173 28.5801C12.7705 28.1461 12.3398 27.7381 11.9896 27.2566C11.5781 26.6901 11.3429 26.0542 11.231 25.3684C11.1017 24.574 11.1354 23.7791 11.222 22.983C11.2497 22.7268 11.2773 22.4713 11.3309 22.2194C11.45 21.6637 11.8146 21.3015 12.2802 21.0206C12.8409 20.6819 13.4455 20.4927 14.1024 20.4565C15.6287 20.3715 17.0906 21.2918 17.6946 22.7202C17.9839 23.4048 18.1301 24.1238 18.2444 24.8525C18.3804 25.7209 18.4754 26.5978 18.7678 27.435C18.9898 28.0708 19.293 28.656 19.7941 29.1201C19.8802 29.1972 19.9734 29.2689 20.0961 29.372Z" fill="white"/>
<path d="M23.5019 6.87402C23.6463 7.20007 23.7774 7.48876 23.902 7.78046C24.3796 8.90325 24.8314 10.0363 25.1996 11.2013C25.3969 11.8245 25.569 12.4537 25.6731 13.1015C25.6977 13.254 25.6574 13.251 25.5347 13.2233C24.8988 13.0798 24.2599 12.9497 23.6246 12.8032C23.446 12.7616 23.2877 12.8225 23.1259 12.8556C22.5628 12.972 22.0021 13.0985 21.442 13.2287C21.3181 13.2576 21.3037 13.2311 21.3229 13.1118C21.4992 12.0233 21.8505 10.9855 22.2259 9.95554C22.5857 8.96834 22.9936 8.00104 23.4201 7.04097C23.4381 6.99818 23.4598 6.9578 23.5019 6.87402Z" fill="white"/>
<path d="M14.1109 19.8638C13.1622 19.7988 12.3813 20.0953 11.7075 20.7263C11.7599 19.4034 12.0582 18.145 12.655 16.9541C12.7381 18.1143 13.2524 19.0551 14.1109 19.8638Z" fill="white"/>
<path d="M32.8843 19.8632C33.7361 19.0616 34.2487 18.1287 34.3269 16.9775C34.7179 17.3367 35.3995 20.0066 35.2828 20.7467C34.6205 20.0976 33.8372 19.7981 32.8843 19.8632Z" fill="white"/>
</g>
<defs>
<clipPath id="clip0_136_4418">
<rect width="24.7075" height="33.253" fill="white" transform="translate(11.1462 6.87402)"/>
</clipPath>
</defs>
</svg>
