<svg width="350" height="350" viewBox="0 0 350 350" fill="none" xmlns="http://www.w3.org/2000/svg">
<circle cx="175" cy="175" r="175" fill="#E533CD"/>
<g clip-path="url(#clip0_1_69)">
<path d="M84.5804 143.828C84.6745 143.236 84.8896 142.724 85.5168 142.509C85.6288 143.249 85.3465 143.712 84.5804 143.828Z" fill="#E4F8C7"/>
<path d="M149.652 218.721C149.957 214.785 150.095 211.154 150.127 207.514C150.167 202.752 150.154 197.99 149.867 193.237C149.41 185.626 148.63 178.05 147.497 170.501C146.09 161.125 143.734 151.956 141.74 142.706C140.777 138.227 140.172 133.694 140.504 129.117C141.153 120.096 144.921 112.601 151.914 106.833C157.796 101.977 164.651 99.6794 172.226 99.8769C175.958 99.9756 179.704 99.5313 183.44 100.227C189.425 101.344 194.756 103.737 199.263 107.857C204.791 112.906 208.106 119.167 209.204 126.567C209.809 130.62 209.558 134.677 208.935 138.717C207.762 146.342 205.513 153.734 204.097 161.305C203.026 167.027 202.059 172.763 201.395 178.557C200.706 184.58 200.258 190.607 199.998 196.666C199.792 201.469 199.774 206.266 199.922 211.059C199.998 213.501 199.854 215.974 200.387 218.532C202.099 217.473 203.443 216.091 204.666 214.601C208.725 209.664 210.673 203.789 212.022 197.667C213.397 191.415 213.881 185.011 215.243 178.754C216.529 172.853 218.37 167.189 222.281 162.431C226.73 157.023 232.442 153.698 239.327 152.625C247.199 151.4 254.34 153.348 260.759 158.074C264.133 160.555 265.584 164.034 266.064 168.024C266.615 172.628 267.117 177.251 266.969 181.896C266.749 188.722 265.589 195.315 261.862 201.226C260.195 203.87 258.143 206.199 256.002 208.452C252.964 211.647 249.824 214.758 247.476 218.537C244.927 222.643 243.7 227.239 242.638 231.889C241.773 235.663 241.007 239.455 239.981 243.189C237.93 250.631 233.557 256.331 227.222 260.63C223.32 263.283 219.257 265.675 215.234 268.134C208.958 271.971 204.146 277.128 200.603 283.555C199.12 286.243 197.413 288.802 195.356 291.099C191.867 295.004 187.297 296.822 182.315 297.823C179.99 298.289 177.643 298.716 175.277 298.81C173.14 298.9 171.026 298.424 168.92 298.056C164.422 297.266 160.117 295.978 156.533 292.958C153.791 290.646 151.856 287.693 150.019 284.673C147.506 280.539 145.073 276.347 141.386 273.098C138.004 270.122 134.192 267.762 130.357 265.437C126.002 262.793 121.612 260.204 117.871 256.663C113.781 252.794 111.268 248.032 109.874 242.66C108.557 237.579 107.455 232.441 106.169 227.351C104.767 221.804 101.981 217.015 98.0965 212.823C95.0994 209.592 91.8918 206.553 89.2844 202.968C86.2201 198.749 84.4685 194.014 83.6352 188.906C82.672 182.991 82.9229 177.071 83.568 171.143C83.7741 169.235 83.9801 167.332 84.3789 165.456C85.2659 161.318 87.9807 158.621 91.4482 156.53C95.6236 154.007 100.126 152.598 105.018 152.329C116.384 151.696 127.27 158.549 131.768 169.186C133.923 174.284 135.011 179.639 135.863 185.065C136.875 191.532 137.583 198.062 139.76 204.296C141.413 209.031 143.671 213.389 147.403 216.845C148.044 217.419 148.738 217.953 149.652 218.721Z" fill="white"/>
<path d="M175.013 51.186C176.088 53.614 177.065 55.7638 177.992 57.936C181.549 66.2973 184.914 74.7348 187.655 83.4102C189.125 88.0509 190.406 92.7364 191.181 97.561C191.365 98.6965 191.065 98.6741 190.151 98.4676C185.415 97.3995 180.658 96.4301 175.927 95.3395C174.596 95.0298 173.418 95.4831 172.213 95.7299C168.02 96.5961 163.844 97.5386 159.674 98.508C158.751 98.7235 158.643 98.526 158.787 97.6373C160.099 89.5319 162.715 81.8035 165.511 74.1334C168.19 66.782 171.227 59.5786 174.404 52.4292C174.538 52.1105 174.699 51.8098 175.013 51.186Z" fill="white"/>
<path d="M105.081 147.917C98.0158 147.432 92.2008 149.64 87.1833 154.339C87.573 144.488 89.7951 135.117 94.2392 126.249C94.8575 134.888 98.6878 141.894 105.081 147.917Z" fill="white"/>
<path d="M244.882 147.917C251.226 141.948 255.043 135 255.625 126.428C258.537 129.103 263.613 148.985 262.744 154.497C257.812 149.663 251.979 147.432 244.882 147.917Z" fill="white"/>
</g>
<defs>
<clipPath id="clip0_1_69">
<rect width="183.992" height="247.628" fill="white" transform="translate(83.0035 51.186)"/>
</clipPath>
</defs>
</svg>
