<svg width="36" height="48" viewBox="0 0 36 48" fill="none" xmlns="http://www.w3.org/2000/svg">
<g clip-path="url(#clip0_80_586)">
<path d="M12.9031 32.4749C12.9621 31.712 12.989 31.0082 12.995 30.3027C13.0028 29.3796 13.0002 28.4566 12.9447 27.5353C12.8562 26.0599 12.7053 24.5914 12.4859 23.1281C12.2136 21.3108 11.7573 19.5334 11.3714 17.7404C11.1849 16.8722 11.0678 15.9936 11.132 15.1062C11.2578 13.3576 11.9872 11.9048 13.3411 10.7869C14.4799 9.84557 15.8069 9.40015 17.2735 9.43842C17.996 9.45756 18.7211 9.37144 19.4445 9.50628C20.6032 9.7229 21.6353 10.1866 22.5078 10.9852C23.5781 11.9639 24.2199 13.1775 24.4324 14.6121C24.5495 15.3976 24.501 16.1841 24.3804 16.9671C24.1532 18.4451 23.7178 19.8779 23.4437 21.3456C23.2364 22.4548 23.0491 23.5666 22.9207 24.6897C22.7871 25.8572 22.7004 27.0255 22.6501 28.2C22.6102 29.1308 22.6067 30.0608 22.6353 30.9899C22.6501 31.4632 22.6223 31.9425 22.7255 32.4384C23.0569 32.2331 23.3171 31.9651 23.5538 31.6763C24.3396 30.7194 24.7169 29.5806 24.978 28.394C25.2443 27.1821 25.3379 25.9407 25.6016 24.728C25.8505 23.584 26.207 22.4861 26.9642 21.5639C27.8254 20.5156 28.9313 19.871 30.2643 19.6631C31.7882 19.4256 33.1707 19.8031 34.4136 20.7192C35.0667 21.2003 35.3477 21.8745 35.4405 22.6479C35.5472 23.5405 35.6444 24.4365 35.6157 25.3369C35.5732 26.6601 35.3486 27.9381 34.627 29.0838C34.3043 29.5963 33.9071 30.0478 33.4925 30.4845C32.9045 31.1039 32.2965 31.7068 31.842 32.4393C31.3485 33.2353 31.1108 34.1261 30.9053 35.0274C30.7379 35.759 30.5896 36.4942 30.391 37.218C29.9937 38.6604 29.1472 39.7652 27.9208 40.5986C27.1654 41.1128 26.3787 41.5765 25.5999 42.0532C24.3847 42.797 23.4532 43.7966 22.7672 45.0424C22.4801 45.5635 22.1496 46.0594 21.7515 46.5048C21.0759 47.2616 20.1912 47.614 19.2268 47.808C18.7766 47.8985 18.3221 47.9811 17.8642 47.9994C17.4505 48.0168 17.0411 47.9246 16.6335 47.8532C15.7627 47.7001 14.9292 47.4504 14.2353 46.8649C13.7045 46.4169 13.3298 45.8445 12.9742 45.259C12.4876 44.4578 12.0167 43.6452 11.3029 43.0154C10.648 42.4386 9.90995 41.981 9.16751 41.5304C8.32448 41.0179 7.4745 40.516 6.75028 39.8296C5.95841 39.0797 5.47184 38.1567 5.2021 37.1153C4.94711 36.1305 4.73375 35.1344 4.48483 34.1479C4.21335 33.0726 3.67388 32.1444 2.92191 31.3318C2.34167 30.7054 1.72066 30.1165 1.21588 29.4214C0.622628 28.6036 0.283503 27.6858 0.122181 26.6958C-0.0642941 25.5492 -0.0157238 24.4017 0.109171 23.2525C0.149068 22.8828 0.188965 22.5139 0.266157 22.1503C0.437887 21.3482 0.963486 20.8253 1.6348 20.4199C2.44314 19.931 3.31481 19.6578 4.26192 19.6056C6.46233 19.483 8.56993 20.8114 9.44072 22.8732C9.85791 23.8615 10.0687 24.8993 10.2335 25.9511C10.4295 27.2047 10.5665 28.4705 10.988 29.6789C11.3081 30.5967 11.7452 31.4414 12.4677 32.1113C12.5917 32.2227 12.7262 32.3262 12.9031 32.4749Z" fill="white"/>
<path d="M17.8132 0C18.0213 0.470648 18.2104 0.887358 18.39 1.30842C19.0786 2.92915 19.73 4.56468 20.2608 6.24631C20.5453 7.14585 20.7933 8.05408 20.9434 8.98929C20.9789 9.20939 20.9208 9.20504 20.7439 9.16502C19.8271 8.95797 18.906 8.77006 17.9901 8.55866C17.7325 8.49863 17.5044 8.5865 17.2711 8.63435C16.4593 8.80225 15.6509 8.98494 14.8435 9.17285C14.6648 9.21461 14.644 9.17633 14.6717 9.00408C14.9259 7.43293 15.4324 5.93486 15.9736 4.4481C16.4923 3.02311 17.0803 1.62682 17.6952 0.240979C17.7213 0.179212 17.7525 0.120924 17.8132 0Z" fill="white"/>
<path d="M4.27429 18.75C2.90652 18.656 1.78073 19.084 0.809326 19.9949C0.884783 18.0853 1.31498 16.2688 2.17536 14.5498C2.29505 16.2245 3.03662 17.5825 4.27429 18.75Z" fill="white"/>
<path d="M31.3398 18.7503C32.568 17.5933 33.3069 16.2466 33.4197 14.585C33.9835 15.1035 34.9661 18.9574 34.7979 20.0257C33.8429 19.0887 32.7137 18.6564 31.3398 18.7503Z" fill="white"/>
</g>
<defs>
<clipPath id="clip0_80_586">
<rect width="35.6211" height="48" fill="white"/>
</clipPath>
</defs>
</svg>
